<svg width="42" height="29" viewBox="0 0 42 29" fill="none" xmlns="http://www.w3.org/2000/svg">
<rect width="41.472" height="28.704" fill="#282C33"/>
<path d="M19.8271 3.5L19.6875 4.11133L17.1025 15.3838C17.6451 15.8304 18.0873 16.388 18.4287 17.0508H18.4277C18.8527 17.8129 19.0596 18.6723 19.0596 19.6162C19.0595 21.184 18.4796 22.5212 17.334 23.5967C16.2138 24.6684 14.8417 25.2041 13.248 25.2041C11.6141 25.2041 10.2261 24.6694 9.12207 23.5889L9.11816 23.5859C8.04002 22.5078 7.50005 21.1736 7.5 19.6162C7.5 18.8868 7.60236 18.1199 7.80273 17.3184C8.00637 16.504 8.40657 15.4781 8.98828 14.25L13.9482 3.78613L14.084 3.5H19.8271ZM34.1016 3.5L33.959 4.11328L31.3447 15.3799C31.9046 15.8264 32.357 16.3847 32.7002 17.0508H32.6992C33.1033 17.8135 33.2998 18.6726 33.2998 19.6162C33.2998 21.184 32.7198 22.5212 31.5742 23.5967C30.4351 24.6661 29.0643 25.204 27.4883 25.2041C25.8928 25.2041 24.5193 24.6669 23.3984 23.5928L23.3945 23.5889C22.2939 22.5116 21.7403 21.177 21.7402 19.6162C21.7402 18.8868 21.8426 18.1199 22.043 17.3184C22.2475 16.5004 22.6602 15.4717 23.2637 14.2432L28.2529 3.78516L28.3887 3.5H34.1016Z" fill="#ABB2BF" stroke="black"/>
</svg>
